<?xml version="1.0" encoding="iso-8859-1"?>
<svg version="1.1" 
     xmlns="http://www.w3.org/2000/svg"
     xmlns:xlink="http://www.w3.org/1999/xlink"
     x="0"
     y="0"
     viewBox="0 0 128 128"
     style="enable-background:new 0 0 128 128;"
     xml:space="preserve">
<g id="_x31_3">
  <path style="fill:#3D3D3D;" d="M88.753,40.211
    c-0.103-0.057-0.221-0.078-0.327-0.13
    v-7.013
    l8.837-9.188
    l0.338-0.411
    c0.08-0.116,0.218-0.287,0.389-0.504
    c2.055-2.619,6.862-8.75,3.863-13.535
    c-2.415-3.85-8.281-4.532-19.035-2.19
    c-19.71,4.289-25.983,1.335-32.054-1.524
    l-1.437-0.671
    C36.688-0.737,29.886-1.499,26.574,2.503
    c-3.185,3.852-1.242,10.638,5.942,20.748
    l7.433,9.261
    v7.426c-0.221,0.096-0.46,0.15-0.671,0.266
    C22.243,49.568,12.82,79.874,12.82,97.245
    C12.82,128,40.016,128,64.009,128
    c23.986,0,51.172,0,51.172-30.755
    C115.18,79.872,105.764,49.563,88.753,40.211
    z
    M38.079,19.297
    c-5.822-8.19-6.193-11.558-6.171-12.389
    c0.831-0.191,4.214-0.402,14.579,4.343
    l1.371,0.64
    c6.438,3.028,14.443,6.802,36.413,2.017
    c8.284-1.804,11.025-1.111,11.709-0.826
    c-0.071,0.595-0.591,2.144-3.359,5.671
    c-0.169,0.215-0.313,0.402-0.429,0.555
    L81.751,30.164
    H46.808
    L38.19,19.457
    L38.079,19.297
    z
    M64.009,121.176
    c-27.605,0-44.365-1.61-44.365-23.931
    c0-17.787,10.012-43.965,22.931-51.065
    c0.131-0.073,0.3-0.116,0.453-0.116
    h41.96
    c0.162,0,0.318,0.04,0.464,0.12
    c12.9,7.091,22.905,33.27,22.905,51.06
    C108.356,119.565,91.603,121.176,64.009,121.176
    z
    M65.511,78.765
    V67.463
    c1.868,0.811,3.026,2.352,3.468,4.625
    l7.313-0.953
    c-0.502-2.89-1.657-5.198-3.468-6.922
    c-1.813-1.726-4.249-2.77-7.313-3.137
    v-2.861
    h-4.192
    v2.861
    c-3.314,0.327-5.967,1.566-7.961,3.714
    c-1.995,2.148-2.992,4.803-2.992,7.961
    c0,3.121,0.882,5.776,2.646,7.964
    c1.762,2.186,4.532,3.819,8.308,4.898
    v12.111
    c-1.04-0.502-1.984-1.311-2.832-2.428
    c-0.849-1.117-1.426-2.448-1.733-3.99
    l-7.544,0.811
    c0.578,3.794,1.906,6.733,3.987,8.814
    s4.789,3.323,8.121,3.727
    v5.26
    h4.192
    v-5.405
    c3.756-0.54,6.691-2.004,8.801-4.392
    c2.108-2.39,3.163-5.329,3.163-8.817
    c0-3.121-0.837-5.678-2.515-7.673
    C73.285,81.64,70.135,80.016,65.511,78.765
    z
    M61.319,77.377
    c-1.253-0.54-2.186-1.248-2.803-2.124
    c-0.615-0.877-0.924-1.826-0.924-2.848
    c0-1.117,0.338-2.139,1.011-3.063
    c0.675-0.924,1.579-1.579,2.717-1.966
    V77.377
    z
    M69.036,96.121
    c-0.906,1.068-2.081,1.737-3.525,2.008
    V86.858
    c1.735,0.5,2.981,1.217,3.743,2.153
    c0.76,0.935,1.142,2.048,1.142,3.339
    C70.395,93.793,69.942,95.05,69.036,96.121
    z"/>
</g>
</svg>
